<svg xmlns="http://www.w3.org/2000/svg" width="735.811" height="800" viewBox="0 0 735.811 800">
  <g id="img_Android" transform="translate(-3.116 -1.207)">
    <g id="Group_3854" data-name="Group 3854" transform="translate(3.116 1.207)">
      <g id="Group_3851" data-name="Group 3851" transform="translate(0 84.951)">
        <path id="Path_4254" data-name="Path 4254" d="M151.226,80.315A74.055,74.055,0,1,1,77.171,6.26,74.051,74.051,0,0,1,151.226,80.315Z" transform="translate(-3.116 -6.26)" fill="#d1763d"/>
      </g>
      <g id="Group_3852" data-name="Group 3852" transform="translate(161.729)">
        <circle id="Ellipse_213" data-name="Ellipse 213" cx="23.415" cy="23.415" r="23.415" transform="translate(0)" fill="#d1763d"/>
      </g>
      <g id="Group_3853" data-name="Group 3853" transform="translate(672.509 736.698)">
        <circle id="Ellipse_214" data-name="Ellipse 214" cx="31.651" cy="31.651" r="31.651" fill="#d1763d"/>
      </g>
    </g>
    <g id="Group_5623" data-name="Group 5623" transform="translate(-73.222 -217.038)">
      <path id="Path_6458" data-name="Path 6458" d="M275.18,596.454c2.478-7.7,4.765-14.85,7.067-22,11.069-34.558,28.793-65.162,54.886-90.525a202.167,202.167,0,0,1,104.945-54.6q14.174-2.716,28.364-5.416a15.022,15.022,0,0,1,3.113-.429c12.308.3,24.616-.508,36.94,1.223a236.714,236.714,0,0,1,70.974,21.313c39.895,19.312,70.133,48.756,91.589,87.364,3.8,6.829,7.274,13.864,10.434,21a23.465,23.465,0,0,0,11.069,11.911c22.218,11.689,40.895,27.491,55.077,48.344,12.785,18.835,20.5,39.64,24.728,61.969a130.789,130.789,0,0,1,1.461,38.179,149.014,149.014,0,0,1-9.688,38.846c-11.53,29.158-29.158,53.5-55.41,71.149-15.643,10.529-32.811,17.66-51,22.314a24.319,24.319,0,0,1-9.338.381,10.3,10.3,0,0,1-8.926-8.926c-.889-5.622.921-10.386,5.384-12.864a31.263,31.263,0,0,1,7.575-2.748c38.719-9.7,66.575-33.065,84.918-68.052,8.179-15.58,11.562-32.525,11.863-50.059.333-18.692-2.478-36.877-9.561-54.283-9.259-22.742-24.632-40.466-45.024-53.87a155.613,155.613,0,0,0-17.645-10.005c-8.163-3.955-13.467-9.942-16.961-18.343-23.9-57.682-65.4-96.512-125.813-113.077-108.439-29.73-210.684,40.2-233.919,138.979-.858,3.653-1.429,7.385-2.128,11.07-.333,1.778-.619,3.557-1.048,5.3-2.239,9.323-7.163,12.7-16.755,11.593a92.322,92.322,0,0,0-24.759.159c-40.085,6.067-67.925,28.142-82.695,65.607C152,746.026,188.26,811.568,249.4,824.02a48.97,48.97,0,0,1,7.417,1.969c6.305,2.35,9.37,8.084,7.861,14.4a11.831,11.831,0,0,1-13.213,9.164,107.5,107.5,0,0,1-20.185-4.606c-47.581-17.1-76.215-50.646-86.3-100.212-2.065-10.132-2.176-20.328-1.636-30.492.333-6.083,2.176-12.1,3.494-18.121a125.777,125.777,0,0,1,102.388-97.672c6.94-1.191,14.055-1.382,21.091-1.985C271.8,596.342,273.29,596.454,275.18,596.454Z" transform="translate(0 0)" fill="#d1763d"/>
      <path id="Path_6459" data-name="Path 6459" d="M226.725,460.821q-4.621,19.272-9.259,38.56c-2.112,8.766-4.145,17.565-6.336,26.3a23.431,23.431,0,0,1-2.4,6.273c-3.605,6.083-12.134,8.211-18.248,4.749-2.287-1.3-3.144-3.51-3.859-5.861-4.034-13.229-8.131-26.442-12.149-39.672-4.685-15.389-9.37-30.779-13.944-46.2a78.735,78.735,0,0,1-1.461-8.068c5.447-.3,10.339-.762,15.2.175a5.921,5.921,0,0,1,3.383,2.684,26.834,26.834,0,0,1,2.684,6.638c5.479,21.091,10.847,42.213,16.263,63.336.461,1.842.985,3.684,1.493,5.527h.921c1.016-3.955,2.112-7.877,3.049-11.848Q208.9,474.209,215.672,445a26.213,26.213,0,0,1,.969-3.478c1.366-3.621,3.272-4.971,7.147-4.987,2.859-.016,5.717.016,8.576.143,4.209.19,5.384,1.1,6.464,5.479,1.97,8.036,3.78,16.1,5.67,24.156q5.312,22.607,10.656,45.214a12.374,12.374,0,0,0,2.017,4.7c.842-2.668,1.81-5.321,2.509-8.036q7.861-30.563,15.628-61.175c2.382-9.386,4-10.7,13.69-10.419,7.8.238,8.465,1.08,6.162,8.56q-13.126,42.428-26.348,84.855c-1.953,6.258-3.843,7.5-10.545,7.242-1.651-.048-3.3,0-4.955-.048-6.321-.174-6.988-.683-8.544-6.924-1.62-6.559-3.144-13.15-4.717-19.741q-5.432-22.583-10.863-45.167c-.365-1.541-.905-3.066-1.366-4.606Z" transform="translate(238.08 193.981)" fill="#d1763d"/>
      <path id="Path_6460" data-name="Path 6460" d="M152.377,446.986c.54-2.223,1.652-2.478,3.161-1.731,2.684,1.318,5.416,2.588,8.068,4.018a326.958,326.958,0,0,0,81.377,31.461c16.136,3.8,32.541,5.86,48.979,7.671a300.437,300.437,0,0,0,43.261,1.826,326.589,326.589,0,0,0,112.361-23.9,19.813,19.813,0,0,1,11.61-.842,10.438,10.438,0,0,1-5,8.052,228.5,228.5,0,0,1-90.318,35.8c-49.439,8.385-97.433,3.161-143.68-16.374a235.684,235.684,0,0,1-66.21-42.388C154.68,449.384,153.473,448.082,152.377,446.986Z" transform="translate(138.478 318.336)" fill="#d1763d"/>
      <path id="Path_6461" data-name="Path 6461" d="M217.574,527.637c-2.446,2.144-4.4,4.018-6.5,5.7-10.879,8.655-23.266,11.133-36.559,7.909-14.928-3.637-22.2-14.88-21.218-30.778,1.223-19.772,16.215-27.745,30.445-29.555,9.989-1.287,19.788.318,29.555,2.192.731.143,1.461.27,2.382.429,1.6-2.811,1.175-5.86,1.175-8.782,0-14.023-6.813-21.472-20.709-22.933-6.575-.7-12.88.54-19.137,2.271-2.906.794-5.733,1.794-8.64,2.573a21.25,21.25,0,0,1-4.86.794c-2.97.08-3.986-1.016-4.24-4.034a10.448,10.448,0,0,1,5.844-10.323c15.468-7.035,31.541-8.766,47.962-4.3,12.276,3.319,19.264,11.848,21.011,24.394a122.433,122.433,0,0,1,.778,15.277c.127,6.623.111,13.246,0,19.868a88.618,88.618,0,0,0,4.082,26.633c.461,1.588.969,3.16,1.334,4.764a4.79,4.79,0,0,1-2.16,5.479c-1.874,1.239-3.669,2.6-5.558,3.843-3.367,2.176-5.67,1.827-8.227-1.35-1.318-1.62-2.414-3.446-3.589-5.193C219.75,531.036,218.8,529.511,217.574,527.637Zm-23.918-33.319c-2.557.223-5.717.318-8.814.81-5.384.889-8.894,4.209-10.768,9.211a20.711,20.711,0,0,0-.587,12.864,13.12,13.12,0,0,0,9.592,9.814c5.368,1.573,10.736,1.032,16.009-.476,11.18-3.224,18.025-12.61,17.8-24.251-.08-4.8-1.318-6.257-5.988-6.67C205.361,495.128,199.818,494.778,193.656,494.318Z" transform="translate(150.925 191.311)" fill="#d1763d"/>
      <path id="Path_6462" data-name="Path 6462" d="M201.365,543.785c-1.6-.255-3.843-.445-6.019-.953-6.575-1.572-13.166-3.113-19.661-4.955a10.247,10.247,0,0,1-7.321-11.467c.508-2.985,1.525-4,4.494-3.843a18.549,18.549,0,0,1,5.209,1.207c8.131,2.985,16.5,4.844,25.156,4.288a55.4,55.4,0,0,0,12.753-2.446c6-1.89,8.941-6.3,8.925-12.134,0-5.416-2.732-9.259-8.529-11.435-4.495-1.7-9.1-3.065-13.674-4.574-7.734-2.541-15.262-5.59-21.885-10.434-13.483-9.862-14.944-27.951-3.017-39.64a38.935,38.935,0,0,1,9.974-6.813,44.535,44.535,0,0,1,21.011-4.256,63.754,63.754,0,0,1,22.806,4.892,10.545,10.545,0,0,1,6.559,12.371c-.826,3.573-2.461,4.542-5.844,3.034a54.885,54.885,0,0,0-16.85-4.733c-6.686-.715-13.23-.239-19.439,2.541-4.177,1.89-7.48,4.621-7.671,9.671a10.9,10.9,0,0,0,6.988,11.1c7.321,3.113,14.8,5.829,22.234,8.672,3.081,1.175,6.273,2.1,9.338,3.287,21.6,8.433,19.693,35.193,7.75,45.548a41.535,41.535,0,0,1-21.424,9.783C209.528,543.071,205.764,543.309,201.365,543.785Z" transform="translate(374.245 190.949)" fill="#d1763d"/>
      <path id="Path_6463" data-name="Path 6463" d="M170.208,457.554c-.953-2.112.651-2.557,1.683-3.288,7.035-4.971,15.056-7.4,23.394-8.83,9.751-1.683,19.471-1.1,29.127.715,5.272.985,7.5,3.526,7.178,8.64-1.032,16.977-6.416,32.3-17.628,45.326-1.842,2.128-3.732,4.24-7.226,5.558a34.142,34.142,0,0,1,.572-3.843c3.017-10.847,6.162-21.647,9.084-32.525,2.414-9.021-.175-12.4-9.529-12.308-11.562.111-23.123.54-34.669.81A12.05,12.05,0,0,1,170.208,457.554Z" transform="translate(399.494 311.817)" fill="#d1763d"/>
    </g>
  </g>
</svg>
